<svg xmlns="http://www.w3.org/2000/svg"  shape-rendering="crispEdges" xmlns:xlink="http://www.w3.org/1999/xlink" width="7.62825in" height="3.7905in" viewBox="0 0 726.5 361"><g  transform="translate(-97.5,-350)"  xmlns="http://www.w3.org/2000/svg"> <rect xmlns="http://www.w3.org/2000/svg" x="97.5" y="350"    width="761.88" height="378.105"   stroke-width="0"  fill="#FFFFFF"   />  <g    xmlns="http://www.w3.org/2000/svg">           <text   x="428" y="472" font-family="Arial" font-size="7pt"  fill="#000080"    text-anchor="start"    >AND2EE </text>           <text   x="428" y="463" font-family="Arial" font-size="7pt" fill="#000080"    text-anchor="start"    >U1 </text>      <polyline points="440 475 440 505" stroke="#A00000" stroke-width="1"    fill="none"  stroke-linecap="round"    />      <polyline points="440 505 465 505" stroke="#A00000" stroke-width="1"    fill="none"  stroke-linecap="round"    />      <path d="M 465 475 A 15 15 0 0 1 465 505"        stroke="#A00000"  stroke-width="1" c_helper_type="arc1" fill="none"     />      <polyline points="440 475 465 475" stroke="#A00000" stroke-width="1"    fill="none"  stroke-linecap="round"    />    <g c_partid="part_pin" c_etype="pinpart"  c_show="show"  c_elec="0" c_spicepin="1" c_origin="440 ,480"  id="0" c_rotation="180">    <path d="M 440 480 h -10" fill="none" stroke="#800"   stroke-width="1"/><circle cx="427" cy="480" r="3"  fill="none" stroke="#800" stroke-width="1" display="none" /><path d="M 430 483 L 433 480 L 430 477"   fill="none" stroke="#800" stroke-width="1" display="none" /></g>    <g c_partid="part_pin" c_etype="pinpart"  c_show="show"  c_elec="0" c_spicepin="2" c_origin="440 ,500"  id="0" c_rotation="180">    <path d="M 440 500 h -10" fill="none" stroke="#800"   stroke-width="1"/><circle cx="427" cy="500" r="3"  fill="none" stroke="#800" stroke-width="1" display="none" /><path d="M 430 503 L 433 500 L 430 497"   fill="none" stroke="#800" stroke-width="1" display="none" /></g>    <g c_partid="part_pin" c_etype="pinpart"  c_show="show"  c_elec="0" c_spicepin="5" c_origin="490 ,490"  id="0" c_rotation="0">    <path d="M 490 490 h -10" fill="none" stroke="#800"   stroke-width="1"/><circle cx="483" cy="490" r="3"  fill="none" stroke="#800" stroke-width="1" display="none" /><path d="M 480 487 L 477 490 L 480 493"   fill="none" stroke="#800" stroke-width="1" display="none" /></g>    <g c_partid="part_pin" c_etype="pinpart"  c_show="none" display="none" c_elec="0" c_spicepin="3" c_origin="460 ,470"  id="0" c_rotation="90">    <path d="M 460 470 v 5" fill="none" stroke="#FF0000"   stroke-width="1"/><circle cx="460" cy="472" r="3"  fill="none" stroke="#FF0000" stroke-width="1" display="none" /><path d="M 457 475 L 460 478 L 463 475"   fill="none" stroke="#FF0000" stroke-width="1" display="none" /></g>    <g c_partid="part_pin" c_etype="pinpart"  c_show="none" display="none" c_elec="0" c_spicepin="4" c_origin="460 ,510"  id="0" c_rotation="270">    <path d="M 460 510 v -5" fill="none" stroke="#000000"   stroke-width="1"/><circle cx="460" cy="508" r="3"  fill="none" stroke="#000000" stroke-width="1" display="none" /><path d="M 463 505 L 460 502 L 457 505"   fill="none" stroke="#000000" stroke-width="1" display="none" /></g></g>  <g    xmlns="http://www.w3.org/2000/svg">           <text   x="428" y="622" font-family="Arial" font-size="7pt"  fill="#000080"    text-anchor="start"    >AND2EE </text>           <text   x="428" y="613" font-family="Arial" font-size="7pt" fill="#000080"    text-anchor="start"    >U2 </text>      <polyline points="440 625 440 655" stroke="#A00000" stroke-width="1"    fill="none"  stroke-linecap="round"    />      <polyline points="440 655 465 655" stroke="#A00000" stroke-width="1"    fill="none"  stroke-linecap="round"    />      <path d="M 465 625 A 15 15 0 0 1 465 655"        stroke="#A00000"  stroke-width="1" c_helper_type="arc1" fill="none"     />      <polyline points="440 625 465 625" stroke="#A00000" stroke-width="1"    fill="none"  stroke-linecap="round"    />    <g c_partid="part_pin" c_etype="pinpart"  c_show="show"  c_elec="0" c_spicepin="1" c_origin="440 ,630"  id="0" c_rotation="180">    <path d="M 440 630 h -10" fill="none" stroke="#800"   stroke-width="1"/><circle cx="427" cy="630" r="3"  fill="none" stroke="#800" stroke-width="1" display="none" /><path d="M 430 633 L 433 630 L 430 627"   fill="none" stroke="#800" stroke-width="1" display="none" /></g>    <g c_partid="part_pin" c_etype="pinpart"  c_show="show"  c_elec="0" c_spicepin="2" c_origin="440 ,650"  id="0" c_rotation="180">    <path d="M 440 650 h -10" fill="none" stroke="#800"   stroke-width="1"/><circle cx="427" cy="650" r="3"  fill="none" stroke="#800" stroke-width="1" display="none" /><path d="M 430 653 L 433 650 L 430 647"   fill="none" stroke="#800" stroke-width="1" display="none" /></g>    <g c_partid="part_pin" c_etype="pinpart"  c_show="show"  c_elec="0" c_spicepin="5" c_origin="490 ,640"  id="0" c_rotation="0">    <path d="M 490 640 h -10" fill="none" stroke="#800"   stroke-width="1"/><circle cx="483" cy="640" r="3"  fill="none" stroke="#800" stroke-width="1" display="none" /><path d="M 480 637 L 477 640 L 480 643"   fill="none" stroke="#800" stroke-width="1" display="none" /></g>    <g c_partid="part_pin" c_etype="pinpart"  c_show="none" display="none" c_elec="0" c_spicepin="3" c_origin="460 ,620"  id="0" c_rotation="90">    <path d="M 460 620 v 5" fill="none" stroke="#FF0000"   stroke-width="1"/><circle cx="460" cy="622" r="3"  fill="none" stroke="#FF0000" stroke-width="1" display="none" /><path d="M 457 625 L 460 628 L 463 625"   fill="none" stroke="#FF0000" stroke-width="1" display="none" /></g>    <g c_partid="part_pin" c_etype="pinpart"  c_show="none" display="none" c_elec="0" c_spicepin="4" c_origin="460 ,660"  id="0" c_rotation="270">    <path d="M 460 660 v -5" fill="none" stroke="#000000"   stroke-width="1"/><circle cx="460" cy="658" r="3"  fill="none" stroke="#000000" stroke-width="1" display="none" /><path d="M 463 655 L 460 652 L 457 655"   fill="none" stroke="#000000" stroke-width="1" display="none" /></g></g>  <g    xmlns="http://www.w3.org/2000/svg">           <text   x="308" y="482" font-family="Arial" font-size="7pt"  fill="#000080"    text-anchor="start"    >INVEE </text>           <text   x="308" y="473" font-family="Arial" font-size="7pt" fill="#000080"    text-anchor="start"    >U3 </text>      <polyline points="320 485 320 515 350 500 320 485" stroke="#000000" stroke-width="1"    fill="none"  stroke-linecap="round"    />    <g c_partid="part_pin" c_etype="pinpart"  c_show="show"  c_elec="1" c_spicepin="1" c_origin="310 ,500"  id="0" c_rotation="180">    <path d="M 310 500 h 10" fill="none" stroke="#880000"   stroke-width="1"/><circle cx="317" cy="500" r="3"  fill="none" stroke="#0000FF" stroke-width="1" display="none" /><path d="M 320 503 L 323 500 L 320 497"   fill="none" stroke="#0000FF" stroke-width="1" display="none" /></g>    <g c_partid="part_pin" c_etype="pinpart"  c_show="none" display="none" c_elec="4" c_spicepin="2" c_origin="330 ,480"  id="0" c_rotation="90">    <path d="M 330 480 v 10" fill="none" stroke="#FF0000"   stroke-width="1"/><circle cx="330" cy="487" r="3"  fill="none" stroke="#FF0000" stroke-width="1" display="none" /><path d="M 327 490 L 330 493 L 333 490"   fill="none" stroke="#FF0000" stroke-width="1" display="none" /></g>    <g c_partid="part_pin" c_etype="pinpart"  c_show="none" display="none" c_elec="4" c_spicepin="3" c_origin="330 ,520"  id="0" c_rotation="270">    <path d="M 330 520 v -10" fill="none" stroke="#000000"   stroke-width="1"/><circle cx="330" cy="513" r="3"  fill="none" stroke="#000000" stroke-width="1" display="none" /><path d="M 333 510 L 330 507 L 327 510"   fill="none" stroke="#000000" stroke-width="1" display="none" /></g>    <g c_partid="part_pin" c_etype="pinpart"  c_show="show"  c_elec="2" c_spicepin="4" c_origin="360 ,500"  id="0" c_rotation="0">    <path d="M 360 500 h -4" fill="none" stroke="#880000"   stroke-width="1"/><circle cx="353" cy="500" r="3"  fill="none" stroke="#0000FF" stroke-width="1" /> <path d="M 350 497 L 347 500 L 350 503"   fill="none" stroke="#0000FF" stroke-width="1" display="none" /></g></g>    <polyline points="220 480 430 480" stroke="#008800" stroke-width="1"   fill="none" stroke-linecap="round"     />    <polyline points="220 650 430 650" stroke="#008800" stroke-width="1"   fill="none" stroke-linecap="round"     />    <polyline points="220 500 310 500" stroke="#008800" stroke-width="1"   fill="none" stroke-linecap="round"     />    <polyline points="360 500 430 500" stroke="#008800" stroke-width="1"   fill="none" stroke-linecap="round"     />    <polyline points="430 630 290 630 290 500" stroke="#008800" stroke-width="1"   fill="none" stroke-linecap="round"     />    <circle cx="290" cy="500" r="2" fill="#CC0000"  stroke-width="1"/>  <g    xmlns="http://www.w3.org/2000/svg">           <text   x="568" y="551.1875" font-family="Arial" font-size="7pt"  fill="#000080"    text-anchor="start"    >OR2EE </text>           <text   x="568" y="542.19" font-family="Arial" font-size="7pt" fill="#000080"    text-anchor="start"    >U4 </text>    <g c_partid="part_pin" c_etype="pinpart"  c_show="show"  c_elec="0" c_spicepin="1" c_origin="580 ,560"  id="0" c_rotation="180">    <path d="M 580 560 h -10" fill="none" stroke="#800"   stroke-width="1"/><circle cx="567" cy="560" r="3"  fill="none" stroke="#800" stroke-width="1" display="none" /><path d="M 570 563 L 573 560 L 570 557"   fill="none" stroke="#800" stroke-width="1" display="none" /></g>    <g c_partid="part_pin" c_etype="pinpart"  c_show="show"  c_elec="0" c_spicepin="2" c_origin="580 ,580"  id="0" c_rotation="180">    <path d="M 580 580 h -10" fill="none" stroke="#800"   stroke-width="1"/><circle cx="567" cy="580" r="3"  fill="none" stroke="#800" stroke-width="1" display="none" /><path d="M 570 583 L 573 580 L 570 577"   fill="none" stroke="#800" stroke-width="1" display="none" /></g>    <g c_partid="part_pin" c_etype="pinpart"  c_show="show"  c_elec="0" c_spicepin="5" c_origin="630 ,570"  id="0" c_rotation="0">    <path d="M 630 570 h -10" fill="none" stroke="#800"   stroke-width="1"/><circle cx="623" cy="570" r="3"  fill="none" stroke="#800" stroke-width="1" display="none" /><path d="M 620 567 L 617 570 L 620 573"   fill="none" stroke="#800" stroke-width="1" display="none" /></g>    <g c_partid="part_pin" c_etype="pinpart"  c_show="none" display="none" c_elec="0" c_spicepin="3" c_origin="600 ,550"  id="0" c_rotation="90">    <path d="M 600 550 v 5" fill="none" stroke="#FF0000"   stroke-width="1"/><circle cx="600" cy="552" r="3"  fill="none" stroke="#FF0000" stroke-width="1" display="none" /><path d="M 597 555 L 600 558 L 603 555"   fill="none" stroke="#FF0000" stroke-width="1" display="none" /></g>    <g c_partid="part_pin" c_etype="pinpart"  c_show="none" display="none" c_elec="0" c_spicepin="4" c_origin="600 ,590"  id="0" c_rotation="270">    <path d="M 600 590 v -5" fill="none" stroke="#000000"   stroke-width="1"/><circle cx="600" cy="588" r="3"  fill="none" stroke="#000000" stroke-width="1" display="none" /><path d="M 603 585 L 600 582 L 597 585"   fill="none" stroke="#000000" stroke-width="1" display="none" /></g>      <polyline points="580 580 583 580" stroke="#A00000" stroke-width="1"    fill="none"  stroke-linecap="round"    />      <path d="M 578.875 554.191 A 16 19 0 0 1 578.875 585.809"        stroke="#A00000"  stroke-width="1" c_helper_type="arc1" fill="none"     />      <path d="M 619 571.5 C 619.25 569.25 619.25 569.25 619 567.75"   stroke="#A00000"  stroke-width="1"   fill="none"  />      <polyline points="580 555 599 555" stroke="#A00000" stroke-width="1"    fill="none"  stroke-linecap="round"    />      <path d="M 618.969 572.086 A 24 29 0 0 1 599 585"        stroke="#A00000"  stroke-width="1" c_helper_type="arc1" fill="none"     />      <path d="M 599 555 A 24 29 0 0 1 618.969 567.914"        stroke="#A00000"  stroke-width="1" c_helper_type="arc1" fill="none"     />      <polyline points="580 585 599 585" stroke="#A00000" stroke-width="1"    fill="none"  stroke-linecap="round"    />      <polyline points="580 560 583 560" stroke="#A00000" stroke-width="1"    fill="none"  stroke-linecap="round"    /></g>    <polyline points="490 490 490 560 570 560" stroke="#008800" stroke-width="1"   fill="none" stroke-linecap="round"     />    <polyline points="490 640 490 580 570 580" stroke="#008800" stroke-width="1"   fill="none" stroke-linecap="round"     />    <polyline points="630 570 780 570" stroke="#008800" stroke-width="1"   fill="none" stroke-linecap="round"     />      <text x="222" y="477.5" font-family="Times New Roman,msyh" font-size="7pt"  fill="#000080"  text-anchor="start"    >A </text>      <text x="222" y="497.5" font-family="Times New Roman,msyh" font-size="7pt"  fill="#000080"  text-anchor="start"    >Control </text>      <text x="222" y="647.5" font-family="Times New Roman,msyh" font-size="7pt"  fill="#000080"  text-anchor="start"    >B </text>      <text x="752" y="567.5" font-family="Times New Roman,msyh" font-size="7pt"  fill="#000080"  text-anchor="start"    >2-1 MUX - output </text>    <polyline points="100 350 100 710" stroke="#008800" stroke-width="1"   fill="none" stroke-linecap="round"     />    <polyline points="150 350 150 710" stroke="#008800" stroke-width="1"   fill="none" stroke-linecap="round"     />     <text x="87" y="701" font-family="Times New Roman,msyh" font-size="9pt" fill="#000080" text-anchor="start" display="none"   transform="rotate(270 ,87 ,701 )" >GND </text>      <polyline points="110 690 100 690" stroke="#000000" stroke-width="1"    fill="none"  stroke-linecap="round"    />      <polyline points="110 700 110 681" stroke="#000000" stroke-width="1"    fill="none"  stroke-linecap="round"    />      <polyline points="112 696 112 683" stroke="#000000" stroke-width="1"    fill="none"  stroke-linecap="round"    />      <polyline points="114 694 114 687" stroke="#000000" stroke-width="1"    fill="none"  stroke-linecap="round"    />      <polyline points="116 691 116 689" stroke="#000000" stroke-width="1"    fill="none"  stroke-linecap="round"    />    <circle cx="100" cy="690" r="2" fill="#CC0000"  stroke-width="1"/>     <text x="170" y="670" font-family="Times New Roman,msyh" font-size="9pt" fill="#000080" text-anchor="end"    transform="rotate(270 ,170 ,670 )" >VCC </text>      <polyline points="160 680 150 680" stroke="#0000ff" stroke-width="1"    fill="none"  stroke-linecap="round"    />      <polyline points="160 675 160 685" stroke="#0000ff" stroke-width="1"    fill="none"  stroke-linecap="round"    />    <circle cx="150" cy="680" r="2" fill="#CC0000"  stroke-width="1"/>     <text x="726" y="580" font-family="Times New Roman,msyh" font-size="9pt" fill="#0000FF" text-anchor="start"     >Output of 2-1 MUX </text>      <polyline points="710.5 570.5 719.75 580 719.75 585 720.5 579.75 724.75 577.75" stroke="#000000" stroke-width="1"    fill="none"  stroke-linecap="round"    />    <circle cx="710" cy="570" r="2" fill="#CC0000"  stroke-width="1"/>     <text x="246" y="510" font-family="Times New Roman,msyh" font-size="9pt" fill="#0000FF" text-anchor="start"     >C0 </text>      <polyline points="230.5 500.5 239.75 510 239.75 515 240.5 509.75 244.75 507.75" stroke="#000000" stroke-width="1"    fill="none"  stroke-linecap="round"    />    <circle cx="230" cy="500" r="2" fill="#CC0000"  stroke-width="1"/>     <text x="276" y="490" font-family="Times New Roman,msyh" font-size="9pt" fill="#0000FF" text-anchor="start"     >A </text>      <polyline points="260.5 480.5 269.75 490 269.75 495 270.5 489.75 274.75 487.75" stroke="#000000" stroke-width="1"    fill="none"  stroke-linecap="round"    />    <circle cx="260" cy="480" r="2" fill="#CC0000"  stroke-width="1"/>     <text x="246" y="660" font-family="Times New Roman,msyh" font-size="9pt" fill="#0000FF" text-anchor="start"     >B </text>      <polyline points="230.5 650.5 239.75 660 239.75 665 240.5 659.75 244.75 657.75" stroke="#000000" stroke-width="1"    fill="none"  stroke-linecap="round"    />    <circle cx="230" cy="650" r="2" fill="#CC0000"  stroke-width="1"/></g></svg>